{"title":"Rihanna - We Found Love (The 54th Grammy Nominations Concert 201","uid":7311085,"size":560061776,"categoryP":"video","categoryS":"tv_shows","magnet":"?xt=urn:btih:ed6a878b15b542be6ec9c8cdb181c28ef0c566ac&amp;dn=Rihanna+-+We+Found+Love+%28The+54th+Grammy+Nominations+Concert+201&amp;tr=udp%3A%2F%2Ftracker.openbittorrent.com%3A80&amp;tr=udp%3A%2F%2Fopen.demonii.com%3A1337&amp;tr=udp%3A%2F%2Ftracker.coppersurfer.tk%3A6969&amp;tr=udp%3A%2F%2Fexodus.desync.com%3A6969","seeders":1,"leechers":0,"uploader":null,"files":1,"time":1338345004,"description":"Format                           : MPEG-TS\nFile size                        : 534 MiB\nDuration                         : 2mn 33s\nOverall bit rate                 : 29.2 Mbps\nMaximum Overall bit rate         : 35.5 Mbps\n\nVideo\nID                               : 4113 (0x1011)\nMenu ID                          : 1 (0x1)\nFormat                           : MPEG Video\nFormat version                   : Version 2\nFormat profile                   : Main@High\nFormat settings, BVOP            : Yes\nFormat settings, Matrix          : Custom\nFormat settings, GOP             : M=3, N=12\nCodec ID                         : 2\nDuration                         : 2mn 33s\nBit rate                         : 27.3 Mbps\nMaximum bit rate                 : 28.1 Mbps\nWidth                            : 1 920 pixels\nHeight                           : 1 080 pixels\nDisplay aspect ratio             : 16:9\nFrame rate                       : 25.000 fps\nColor space                      : YUV\nChroma subsampling               : 4:2:0\nBit depth                        : 8 bits\nScan type                        : Interlaced\nScan order                       : Top Field First\nCompression mode                 : Lossy\nBits/(Pixel*Frame)               : 0.527\nStream size                      : 500 MiB (94%)\n\nAudio\nID                               : 4352 (0x1100)\nMenu ID                          : 1 (0x1)\nFormat                           : AC-3\nFormat/Info                      : Audio Coding 3\nMode extension                   : CM (complete main)\nCodec ID                         : 129\nDuration                         : 2mn 33s\nBit rate mode                    : Constant\nBit rate                         : 384 Kbps\nChannel(s)                       : 6 channels\nChannel positions                : Front: L C R, Side: L R, LFE\nSampling rate                    : 48.0 KHz\nBit depth                        : 16 bits\nCompression mode                 : Lossy\nDelay relative to video          : -80ms\nStream size                      : 7.03 MiB (1%)\nLanguage                         : English\n","torrent":{"xt":"urn:btih:ed6a878b15b542be6ec9c8cdb181c28ef0c566ac","amp;dn":"Rihanna+-+We+Found+Love+%28The+54th+Grammy+Nominations+Concert+201","amp;tr":["udp%3A%2F%2Ftracker.openbittorrent.com%3A80","udp%3A%2F%2Fopen.demonii.com%3A1337","udp%3A%2F%2Ftracker.coppersurfer.tk%3A6969","udp%3A%2F%2Fexodus.desync.com%3A6969"],"infoHash":"ed6a878b15b542be6ec9c8cdb181c28ef0c566ac","infoHashBuffer":{"type":"Buffer","data":[237,106,135,139,21,181,66,190,110,201,200,205,177,129,194,142,240,197,102,172]},"announce":[],"urlList":[]}}